<?xml version="1.0" encoding="utf-8"?><svg viewBox="0 0 480 112" xmlns="http://www.w3.org/2000/svg" xmlns:xlink="http://www.w3.org/1999/xlink"><style>:root>svg{display:none}:root>svg:target{display:block}</style><svg viewBox="0 0 26 27" id="address" xmlns="http://www.w3.org/2000/svg"><path d="M10.385 24.035v2.633l-.637-.514c-.098-.08-2.44-1.98-4.813-4.705C1.66 17.689 0 14.314 0 11.419v-.288C0 5.405 4.659.747 10.385.747S20.77 5.405 20.77 11.13v.287c0 .244-.013.49-.037.74l-2.03-1.852c-.417-4.223-3.988-7.533-8.318-7.533-4.609 0-8.359 3.75-8.359 8.358v.287c0 4.894 6.306 10.818 8.359 12.617zm6.23-1.455h3.04v-3.04h-3.04v3.04zm-6.23-15.755a4.31 4.31 0 014.306 4.306 4.31 4.31 0 01-4.306 4.306 4.31 4.31 0 01-4.306-4.306 4.31 4.31 0 014.306-4.306zm0 2.027a2.282 2.282 0 00-2.28 2.28 2.282 2.282 0 002.28 2.279 2.282 2.282 0 002.28-2.28 2.282 2.282 0 00-2.28-2.28zm14.25 12.35l-.57-.519v3.253a2.75 2.75 0 01-2.747 2.747h-6.416a2.75 2.75 0 01-2.747-2.747v-3.253l-.57.52-1.365-1.497 7.89-7.198L26 19.706l-1.366 1.497zm-2.597-2.367L18.11 15.25l-3.928 3.584v5.101c0 .398.323.72.72.72h6.416c.397 0 .72-.322.72-.72v-5.101z"/></svg><svg viewBox="0 0 45 45" id="album" xmlns="http://www.w3.org/2000/svg"><path d="M37.5 3.75H0v37.5h45V3.75h-7.5zM6 39.75H1.5v-4.5H6v4.5zm0-6H1.5v-4.5H6v4.5zm0-6H1.5v-4.5H6v4.5zm0-6H1.5v-4.5H6v4.5zm0-6H1.5v-4.5H6v4.5zm0-6H1.5v-4.5H6v4.5zm31.5 30h-30V5.25h30v34.5zm6 0H39v-4.5h4.5v4.5zm0-6H39v-4.5h4.5v4.5zm0-6H39v-4.5h4.5v4.5zm0-6H39v-4.5h4.5v4.5zm0-6H39v-4.5h4.5v4.5zm0-6H39v-4.5h4.5v4.5z" fill="#fff" fill-opacity=".8"/><path d="M28.404 22.125a.748.748 0 00-.279-.278l-10.5-6a.75.75 0 00-1.125.653v12a.75.75 0 001.125.649l10.5-6a.75.75 0 00.279-1.024zM18 27.207v-9.414l8.238 4.707L18 27.207z" fill="#fff" fill-opacity=".8"/></svg><svg viewBox="0 0 48 51" id="before" xmlns="http://www.w3.org/2000/svg"><path d="M12.386 0h21.857L21.857 51H0L12.386 0zM40.071 0h7.286L34.971 51h-7.285L40.07 0z"/></svg><svg fill="none" viewBox="0 0 70 70" id="calendar" xmlns="http://www.w3.org/2000/svg"><path d="M52.773 31.445a2.734 2.734 0 100-5.468 2.734 2.734 0 000 5.468z" fill="#80CFF1"/><path d="M59.063 5.469h-3.555V2.734a2.734 2.734 0 10-5.469 0V5.47H37.598V2.734a2.734 2.734 0 10-5.47 0V5.47H19.825V2.734a2.734 2.734 0 10-5.469 0V5.47h-3.418C4.907 5.469 0 10.375 0 16.406v42.657C0 65.093 4.907 70 10.938 70h20.917a2.734 2.734 0 100-5.469H10.938a5.475 5.475 0 01-5.468-5.469V16.407a5.475 5.475 0 015.468-5.468h3.418v2.734a2.734 2.734 0 105.47 0v-2.735h12.304v2.735a2.734 2.734 0 105.469 0v-2.735h12.441v2.735a2.734 2.734 0 105.469 0v-2.735h3.554a5.475 5.475 0 015.47 5.47v15.585a2.734 2.734 0 105.468 0V16.406c0-6.03-4.907-10.937-10.938-10.937z" fill="#80CFF1"/><path d="M53.457 36.914c-9.122 0-16.543 7.421-16.543 16.543S44.335 70 53.457 70 70 62.579 70 53.457s-7.421-16.543-16.543-16.543zm0 27.617c-6.106 0-11.074-4.968-11.074-11.074s4.968-11.074 11.074-11.074 11.074 4.968 11.074 11.074-4.968 11.074-11.074 11.074z" fill="#80CFF1"/><path d="M57.422 50.723h-1.23v-2.871a2.734 2.734 0 10-5.47 0v5.605a2.734 2.734 0 002.735 2.734h3.965a2.734 2.734 0 100-5.468zM40.879 31.445a2.734 2.734 0 100-5.468 2.734 2.734 0 000 5.468zM28.984 43.34a2.734 2.734 0 100-5.469 2.734 2.734 0 000 5.469zM17.09 31.445a2.734 2.734 0 100-5.468 2.734 2.734 0 000 5.468zM17.09 43.34a2.734 2.734 0 100-5.469 2.734 2.734 0 000 5.469zM17.09 55.234a2.734 2.734 0 100-5.468 2.734 2.734 0 000 5.468zM28.984 55.234a2.734 2.734 0 100-5.468 2.734 2.734 0 000 5.468zM28.984 31.445a2.734 2.734 0 100-5.469 2.734 2.734 0 000 5.47z" fill="#80CFF1"/></svg><svg fill="none" viewBox="0 0 63 50" id="day" xmlns="http://www.w3.org/2000/svg"><path d="M63 15c0-8.284-6.716-15-15-15H0v35c0 8.284 6.716 15 15 15h48V15z" fill="#0082C8"/></svg><svg fill="none" viewBox="0 0 71 70" id="family" xmlns="http://www.w3.org/2000/svg"><path d="M58.38 10.254C58.38 4.6 53.716 0 47.98 0c-5.734 0-10.4 4.6-10.4 10.254s4.666 10.254 10.4 10.254c5.735 0 10.4-4.6 10.4-10.254zm-10.4 6.152c-3.44 0-6.24-2.76-6.24-6.152 0-3.392 2.8-6.152 6.24-6.152 3.441 0 6.24 2.76 6.24 6.152 0 3.392-2.799 6.152-6.24 6.152z" fill="#79C1E9"/><path d="M8.459 67.95c0 1.132.931 2.05 2.08 2.05h49.922c1.149 0 2.08-.918 2.08-2.05V49.204a20.214 20.214 0 004.16-12.29c0-9.047-7.465-16.407-16.64-16.407h-10.4a6.265 6.265 0 00-4.161 1.57 6.265 6.265 0 00-4.16-1.57h-10.4c-9.176 0-16.641 7.36-16.641 16.406 0 4.607 1.549 8.864 4.16 12.291V67.95zm4.16-14.64a20.886 20.886 0 0012.48 4.112v8.476H12.62V53.31zm20.8-2.04c0-2.444-1.451-4.559-3.55-5.551a2.088 2.088 0 011.47-.602h8.321c.574 0 1.094.23 1.47.602-2.098.992-3.55 3.107-3.55 5.55 0 2.674 1.74 4.954 4.16 5.8v8.83H29.26v-8.83c2.42-.846 4.16-3.126 4.16-5.8zM45.9 65.898v-8.476c4.68 0 9.002-1.531 12.48-4.112v12.588H45.9zM35.5 28.711c2.294 0 4.16 1.84 4.16 4.102 0 2.261-1.866 4.101-4.16 4.101s-4.16-1.84-4.16-4.102c0-2.261 1.866-4.101 4.16-4.101zm-14.56-4.102h10.4c.51 0 .978.184 1.34.486-3.203 1.141-5.5 4.17-5.5 7.718 0 4.523 3.732 8.203 8.32 8.203s8.32-3.68 8.32-8.203c0-3.549-2.297-6.577-5.5-7.718.361-.302.83-.486 1.34-.486h10.4c6.882 0 12.481 5.52 12.481 12.305 0 9.047-7.465 16.406-16.64 16.406h-2.08c-1.148 0-2.08-.92-2.08-2.05 0-1.131.932-2.051 2.08-2.051h2.08c6.881 0 12.48-5.52 12.48-12.305 0-1.133-.931-2.05-2.08-2.05s-2.08.918-2.08 2.05c0 4.523-3.733 8.203-8.32 8.203h-.358a6.245 6.245 0 00-5.883-4.101h-8.32a6.245 6.245 0 00-5.883 4.101H25.1c-4.588 0-8.32-3.68-8.32-8.203 0-1.133-.932-2.05-2.08-2.05-1.15 0-2.08.918-2.08 2.05 0 6.785 5.598 12.305 12.48 12.305h2.08c1.147 0 2.08.92 2.08 2.05 0 1.131-.933 2.051-2.08 2.051H25.1c-9.176 0-16.641-7.36-16.641-16.406 0-6.785 5.599-12.305 12.48-12.305z" fill="#79C1E9"/><path d="M33.42 10.254C33.42 4.6 28.754 0 23.02 0c-5.735 0-10.4 4.6-10.4 10.254s4.665 10.254 10.4 10.254c5.734 0 10.4-4.6 10.4-10.254zm-10.4 6.152c-3.441 0-6.24-2.76-6.24-6.152 0-3.392 2.799-6.152 6.24-6.152 3.44 0 6.24 2.76 6.24 6.152 0 3.392-2.8 6.152-6.24 6.152z" fill="#79C1E9"/></svg><svg viewBox="0 0 228 71" id="feature-bg-1" xmlns="http://www.w3.org/2000/svg"><path d="M45.605 10.551L30.49.413l97.735 9.97 98.954-6.936-46.098 12.436 37.816 4.383-34.965 18.6 42.174 3-29.791 18.51 30.258 9.854-100.879-9.087-101.75 2.99 29.33-11.84-41.038-1.015 27.78-16.77L.85 20.059l44.755-9.508z"/></svg><svg viewBox="0 0 230 80" id="feature-bg-2" xmlns="http://www.w3.org/2000/svg"><path d="M44.238 24.47l-15.99-8.691 98.238.86L224.37.55l-44.745 16.66 38.06.855-33.089 21.764 42.27-.925-27.945 21.193 31.041 7.005-101.287.312L27.642 79.83 55.747 65.32 14.79 68.118l26.106-19.276L.558 38.09l43.68-13.62z"/></svg><svg viewBox="0 0 202 77" id="feature-bg-3" xmlns="http://www.w3.org/2000/svg"><path d="M40.402 11.233L27.691.813l85.65 13.494 87.777-2.845-41.463 10.247 33.107 5.73-32.02 16.659 37.041 4.56-27.447 16.773 26.095 10.737-88.48-12.76-89.999-1.09 26.626-10.327L8.416 49.4l25.565-15.166L.307 18.694l40.095-7.461z"/></svg><svg viewBox="0 0 187 76" id="feature-bg-4" xmlns="http://www.w3.org/2000/svg"><path d="M149.153 10.918L160.749.399 81.555 13.082.084 8.973l38.651 11.077-30.602 5.43 30.013 17.528-34.272 4.177 25.773 17.582L5.642 75.43l81.832-11.892 83.459.103-24.89-10.958 33.493-2.168-23.996-15.909 30.944-15.487-37.331-8.2z"/></svg><svg fill="none" viewBox="0 0 372 112" id="footer-logo" xmlns="http://www.w3.org/2000/svg"><path fill-rule="evenodd" clip-rule="evenodd" d="M348.539 57.695h3.343l-17.211 47.232h-3.343l17.211-47.232z" fill="#fff"/><path d="M185.734 104.93l-19.303-.003c-6.491-.001-10.422-5.813-8.046-12.005l8.197-22.5 6.713-18.425c1.607-4.335 5.529-7.21 10.041-7.21h24.313l-3.487 9.572h-19.819c-1.296 0-2.146.612-2.551 1.814l-13.188 36.2c-.708 1.613.246 2.98 1.892 2.98h18.727l-3.489 9.577zM269.484 95.354l-3.488 9.573h-19.294c-6.491 0-10.422-5.813-8.046-12.006l10.323-28.335 4.587-12.59c1.607-4.334 5.529-7.21 10.04-7.21H278.9c6.537 0 10.37 5.74 8.087 12.005l-6.023 16.533c-1.281 3.516-3.711 5.84-7.197 6.863l-22.901 6.72-2.128 5.84c-.418 1.445.511 2.607 2.028 2.607h18.718zm6.963-40.995h-11.834c-1.228 0-2.056.55-2.483 1.632l-7.261 19.929 15.747-4.62c.911-.268 1.472-.84 1.772-1.665l5.009-13.75c.249-.683-.148-1.526-.95-1.526zM298.035 44.787h22.708c6.537 0 10.37 5.739 8.087 12.004l-6.023 16.533c-1.281 3.516-3.711 5.84-7.197 6.863l-22.901 6.72-6.565 18.02H276.121l21.914-60.14zm-1.323 31.133l15.747-4.62c.911-.268 1.472-.84 1.773-1.665l5.008-13.75c.249-.683-.148-1.526-.95-1.526h-13.723l-7.855 21.561zM336.984 52.743l.272-.747c1.607-4.334 5.529-7.21 10.041-7.21h24.314l-3.488 9.573h-19.819c-1.295 0-2.146.612-2.55 1.814l-17.762 48.754H317.966l19.016-52.184h.002zM147.655 76.478L128.01 88.805l-5.875 16.122h-10.019l21.91-60.14h10.019l-11.339 31.131 19.645-12.327 6.853-18.804h10.019l-21.91 60.14h-10.02l10.362-28.449z" fill="#fff"/><path fill-rule="evenodd" clip-rule="evenodd" d="M144.282 37.354h20.1l-6.112-12.211-15.294 9.6 1.306 2.61z" fill="#fff"/><path d="M62.5 60.355c-4.142-4.16-8.924-8.208-14.406-12.11l1.98-3.103c.07-.102.137-.206.2-.313 5.46 3.875 10.263 7.894 14.462 12.028L62.5 60.355zM81.543 65.611a90.262 90.262 0 014.296 6.696 85.593 85.593 0 015.185 10.511l.03.074.278.76-2.217 6.03-2.07-5.648a81.006 81.006 0 00-4.879-9.882 84.735 84.735 0 00-3.01-4.805l2.387-3.736zM54.098 38.836a134.172 134.172 0 018.053 6.14 119.401 119.401 0 016.494 5.764l-2.23 3.489c-2.203-2.14-4.5-4.188-6.876-6.15a130.362 130.362 0 00-7.623-5.825l2.182-3.418z" fill="#fff"/><path d="M91.858 104.927h-6.852l-.289-1.943c-1.358-9.134-4.464-18.214-9.814-26.983l2.44-3.817c5.956 9.19 9.532 18.721 11.242 28.33l29.854-81.93h4.899l-31.462 86.343h-.018zM50.098 94.356c-2.324 3.774-4.188 7.586-8.044 10.16-3.907 2.61-9.235 3.742-13.657 4.556-3.487.642-15.655 2.178-22.612 1.958-3.89-.124-5.186-.072-5.367-3.529-.055-1.068-.012-2.163.008-2.709.261-7.047 9.921-4.688 14.305-4.692 9.269-.009 25.562.628 31.621-8.448l53.916-84.494 3.863 2.522-54.033 84.676z" fill="#fff"/><path d="M102.871 17.62c2.323-3.774 4.187-7.586 8.043-10.16 3.908-2.61 9.235-3.742 13.657-4.556 3.488-.642 15.656-2.178 22.613-1.958 3.889.124 5.186.072 5.366 3.53.055 1.067.012 2.162-.008 2.708-.261 7.048-9.921 4.688-14.305 4.692-9.268.01-25.562-.628-31.621 8.449L52.7 104.817l-3.863-2.522L102.87 17.62zM188.427 33.866a4.823 4.823 0 01-3.377 1.366c-1.802 0-2.791-1.18-2.497-2.855.357-2.032 2.207-3.723 4.552-3.723 1.258 0 1.953.465 2.39 1.163l1.981-1.38c-.528-1.242-1.633-2.11-3.807-2.11-3.914 0-7.042 2.777-7.649 6.236-.626 3.569 1.794 4.996 4.513 4.996 2.112 0 3.887-.822 5.059-2.188l-1.165-1.505zm9.54 3.507h2.408l4.018-10.86h-9.63l-4.018 10.86h2.407l3.189-8.61h4.815l-3.189 8.61zm6.634-4.623c-.481 2.745 1.098 4.809 4.111 4.809 3.588 0 6.924-2.637 7.592-6.439.495-2.823-1.039-4.793-4.083-4.793-4.24 0-7.135 3.661-7.62 6.422zm2.537-.202c.375-2.141 2.298-3.894 4.411-3.894 1.724 0 2.469 1.24 2.213 2.7-.365 2.078-2.25 3.878-4.378 3.878-1.584 0-2.535-1.04-2.246-2.684zm11.778 4.825l1.267-3.413h2.097c3.029 0 5.658-1.35 6.153-4.174.31-1.769-.311-3.273-3.402-3.273h-4.504l-4.018 10.86h2.407zm5.348-8.61c1.32 0 1.761.496 1.638 1.194-.182 1.04-1.068 1.753-2.823 1.753h-2.066l1.092-2.948h2.159zm5.605 0h3.479l-3.188 8.61h2.407l3.189-8.61h3.494l.83-2.25h-9.381l-.83 2.25zm10.167 8.61l7.652-6.346-2.356 6.346h2.408l4.018-10.86h-2.004l-7.626 6.376 2.361-6.376h-2.407l-4.018 10.86h1.972zm10.715 0h4.737c2.796 0 5.116-.915 5.606-3.708.193-1.102-.133-1.722-.65-2.048.912-.419 1.81-1.288 2.008-2.42.311-1.769-.429-2.684-2.822-2.684h-4.861l-4.018 10.86zm6.264-4.453c1.01 0 1.679.17 1.557.869-.164.93-.965 1.334-2.503 1.334h-2.081l.822-2.203h2.205zm1.538-4.158c1.118 0 1.426.28 1.331.823-.131.744-.795 1.163-1.866 1.163h-2.408l.737-1.986h2.206zm10.958 8.61h2.408l4.018-10.859h-2.407l-1.572 4.266h-4.83l1.571-4.266h-2.407l-4.018 10.86h2.407l1.601-4.344h4.831l-1.602 4.344zm4.348 0h2.671l1.628-2.016h4.473l.143 2.017h2.407l-.75-10.86h-1.786l-8.786 10.86zm8.442-7.213l.205 3.165h-2.749l2.544-3.165zm11.281 7.214h2.408l4.018-10.86h-4.846c-2.843 0-5.287 1.365-5.748 3.987-.25 1.427.327 2.296 1.372 2.808l-4.675 4.065h2.905l4.124-3.584h1.77l-1.328 3.584zm-.218-5.834c-.994 0-1.552-.45-1.397-1.334.18-1.024 1.138-1.442 2.521-1.442h2.283l-1.031 2.776h-2.376zm16.157 5.834h12.721l4.018-10.86h-2.407l-3.189 8.61h-2.749l3.188-8.61h-2.407l-3.188 8.61h-2.75l3.189-8.61h-2.407l-4.019 10.86zm15.733 0h2.407l1.256-3.351 1.455-1.04 2.041 4.39h2.874l-2.701-5.848 6.408-5.01h-3.354l-5.554 4.296 1.593-4.297h-2.407l-4.018 10.86zm11.93-4.623c-.482 2.745 1.097 4.809 4.11 4.809 3.588 0 6.925-2.637 7.592-6.439.495-2.823-1.038-4.793-4.083-4.793-4.24 0-7.134 3.661-7.619 6.422zm2.536-.202c.376-2.141 2.298-3.894 4.411-3.894 1.724 0 2.469 1.24 2.213 2.7-.365 2.078-2.249 3.878-4.377 3.878-1.584 0-2.536-1.04-2.247-2.684zm16.221 4.825h2.407l4.018-10.86h-8.154l-.464 1.225c-2.624 6.904-3.399 7.602-4.979 7.4l-.827 2.235c.196.03.629.046.924.046 2.749 0 4.375-2.187 6.348-7.322l.485-1.257h3.401l-3.159 8.533zm4.347 0h2.672l1.627-2.017h4.473l.143 2.017h2.408l-.75-10.86h-1.787l-8.786 10.86zm8.442-7.214l.205 3.165h-2.749l2.544-3.165z" fill="#fff"/><path fill-rule="evenodd" clip-rule="evenodd" d="M95.436 104.927h10.016l32.283-88.596H127.72l-32.284 88.596zM184.578 57.695h3.343L175.439 91.95h-3.343l12.482-34.255z" fill="#fff"/><path d="M214.35 72.31l-8.396 23.044h13.333c1.296 0 2.116-.61 2.551-1.804l7.187-19.715c.091-.862.034-1.526-1.02-1.526H214.35zm.007-27.523h31.728l-3.487 9.572h-21.709l-3.052 8.378h12.804c5.498 0 9.153 4.078 8.575 9.572-.083.786-.299 1.593-.603 2.428l-8.06 22.126c-1.722 4.729-6.296 8.063-11.18 8.063l-26.931.001 21.915-60.14z" fill="#fff"/><path fill-rule="evenodd" clip-rule="evenodd" d="M28.075 32.192c-.953 1.48 2.44 5.356 7.58 8.658 5.139 3.302 10.078 4.78 11.03 3.3l3.345-5.195c.954-1.48-2.44-5.356-7.579-8.658-4.659-2.994-9.153-4.487-10.662-3.637-.508.285-.612.79-.471 1.371C32.33 32.197 42.9 38.716 47.58 39.45c-4.936-.306-15.883-6.693-16.934-11.25l-2.572 3.993z" fill="#fff"/></svg><svg fill="none" viewBox="0 0 396 71" id="ice-arena" xmlns="http://www.w3.org/2000/svg"><path fill-rule="evenodd" clip-rule="evenodd" d="M287.07 5.652h109.409V.956H287.07v4.696zM287.07 70.453h109.409v-4.696H287.07v4.696z" fill="#0082C8"/><path d="M64.544 47.237h5.13l8.367-23.066H60.667l-.966 2.603c-5.47 14.664-7.108 16.147-10.478 15.718l-1.722 4.745c.42.066 1.34.1 1.969.1 5.858 0 9.284-4.647 13.396-15.554l1.01-2.67h7.247l-6.579 18.124zm9.432 0H91.98l1.728-4.778H80.833l1.667-4.613h11.748l1.7-4.613H84.2l1.545-4.284h12.576l1.728-4.778H82.343l-8.367 23.066zm17.986 3.856h4.798l1.408-3.856h14.859l-1.407 3.856h4.798l3.135-8.634h-2.681l6.64-18.288h-16.878l-.993 2.768c-3.295 9.194-6.5 13.708-8.03 15.52h-2.514l-3.135 8.634zm18.008-22.144h6.685l-4.912 13.51h-8.704c2.014-2.34 4.238-6.722 6.418-12.225l.513-1.285zm12.678 8.469c-.977 5.832 2.425 10.215 8.845 10.215 7.645 0 14.706-5.602 16.06-13.675 1.004-5.997-2.299-10.182-8.785-10.182-9.035 0-15.137 7.776-16.12 13.642zm5.401-.428c.761-4.548 4.828-8.272 9.328-8.272 3.674 0 5.284 2.637 4.764 5.734-.74 4.416-4.723 8.238-9.257 8.238-3.375 0-5.421-2.207-4.835-5.7zm17.94 10.247h10.093c5.957 0 10.883-1.943 11.877-7.875.392-2.34-.313-3.657-1.422-4.35 1.936-.89 3.834-2.735 4.237-5.14.63-3.756-.964-5.701-6.06-5.701h-10.359l-8.366 23.066zm13.267-9.457c2.151 0 3.579.363 3.331 1.846-.332 1.977-2.031 2.833-5.307 2.833h-4.434l1.711-4.679h4.699zm3.201-8.83c2.383 0 3.045.592 2.851 1.746-.265 1.581-1.672 2.47-3.955 2.47h-5.13l1.535-4.217h4.699zm3.023 18.287h5.693l3.431-4.283h9.531l.341 4.283h5.13l-1.793-23.066h-3.805L165.48 47.237zm17.858-15.322l.495 6.722h-5.857l5.362-6.722zm22.054 15.322h5.129l8.367-23.066h-10.325c-6.056 0-11.242 2.9-12.175 8.469-.508 3.031.738 4.877 2.972 5.965l-9.886 8.632h6.188l8.722-7.611h3.773l-2.765 7.611zm-.571-12.39c-2.118 0-3.314-.955-2.999-2.833.364-2.175 2.399-3.065 5.344-3.065h4.865l-2.146 5.898h-5.064zm19.275 12.39h5.693l3.431-4.283h9.531l.341 4.283h5.13l-1.793-23.066h-3.806l-18.527 23.066zm17.858-15.322l.495 6.722h-5.858l5.363-6.722zm13.416 15.322l2.638-7.249h4.468c6.453 0 12.03-2.866 13.035-8.864.63-3.757-.721-6.953-7.306-6.953h-9.598l-8.367 23.066h5.13zm11.239-18.288c2.813 0 3.762 1.054 3.514 2.537-.37 2.208-2.246 3.724-5.986 3.724h-4.402l2.275-6.26h4.599zm6.036 18.288h18.003l1.727-4.778h-12.873l1.667-4.613h11.748l1.7-4.613h-11.748l1.545-4.284h12.576l1.728-4.778h-17.706l-8.367 23.066zm36.899 0h5.13l8.367-23.066h-5.129l-3.273 9.062h-10.292l3.273-9.062h-5.13l-8.367 23.066h5.129l3.334-9.226h10.292l-3.334 9.226zm7.149 0h5.692l3.432-4.283h9.53l.341 4.283h5.13l-1.793-23.066h-3.806l-18.526 23.066zm17.857-15.322l.495 6.722h-5.858l5.363-6.722z" fill="#0082C8"/><path fill-rule="evenodd" clip-rule="evenodd" d="M287.07 5.652H177.661V.956H287.07v4.696zM287.07 70.453H177.661v-4.696H287.07v4.696zM68.251 5.652h109.41V.956H68.251v4.696zM68.251 70.453h109.41v-4.696H68.251v4.696zM68.25 5.652H21.093V.956H68.25v4.696zM68.251 70.453H.341v-4.696h67.91v4.696z" fill="#0082C8"/></svg><svg viewBox="0 0 25 25" id="instagram" xmlns="http://www.w3.org/2000/svg"><g clip-path="url(#amclip0)"><path d="M24.976 7.35c-.059-1.328-.274-2.241-.581-3.033A6.102 6.102 0 0022.948 2.1 6.153 6.153 0 0020.736.66C19.94.351 19.032.136 17.704.077 16.365.015 15.94 0 12.546 0 9.152 0 8.727.015 7.394.073 6.066.132 5.152.347 4.361.654A6.1 6.1 0 002.144 2.1a6.155 6.155 0 00-1.44 2.212C.395 5.108.18 6.017.121 7.345.06 8.683.044 9.108.044 12.502c0 3.395.015 3.82.073 5.153.059 1.328.274 2.241.581 3.033.318.84.811 1.592 1.446 2.217a6.153 6.153 0 002.212 1.44c.796.308 1.705.523 3.033.582 1.333.058 1.758.073 5.153.073 3.394 0 3.819-.015 5.152-.073 1.328-.059 2.242-.274 3.033-.581a6.395 6.395 0 003.658-3.658c.307-.796.522-1.705.58-3.033.06-1.334.074-1.758.074-5.153 0-3.394-.005-3.819-.064-5.152zm-2.252 10.207c-.053 1.221-.259 1.88-.43 2.32a4.147 4.147 0 01-2.373 2.373c-.44.171-1.104.377-2.32.43-1.319.059-1.714.073-5.05.073-3.335 0-3.736-.014-5.05-.073-1.22-.053-1.88-.259-2.32-.43a3.846 3.846 0 01-1.435-.932 3.886 3.886 0 01-.933-1.436c-.17-.44-.376-1.104-.43-2.32-.058-1.319-.073-1.714-.073-5.05 0-3.335.015-3.736.073-5.05.054-1.22.26-1.88.43-2.32a3.8 3.8 0 01.938-1.435 3.88 3.88 0 011.436-.933c.44-.17 1.103-.376 2.32-.43 1.318-.058 1.714-.073 5.05-.073 3.34 0 3.735.015 5.049.073 1.221.054 1.88.26 2.32.43.542.2 1.035.518 1.436.933.415.405.732.893.932 1.436.171.44.377 1.103.43 2.32.059 1.318.073 1.714.073 5.05 0 3.335-.014 3.725-.073 5.044z"/><path d="M12.546 6.08a6.424 6.424 0 00-6.422 6.422 6.424 6.424 0 006.422 6.423 6.424 6.424 0 006.422-6.423 6.424 6.424 0 00-6.422-6.422zm0 10.588a4.167 4.167 0 11.002-8.333 4.167 4.167 0 01-.002 8.333zM20.722 5.826a1.5 1.5 0 11-2.999 0 1.5 1.5 0 012.999 0z"/></g><defs><clipPath id="amclip0"><path fill="#fff" d="M0 0h25v25H0z"/></clipPath></defs></svg><svg fill="none" viewBox="0 0 336 99" id="logo" xmlns="http://www.w3.org/2000/svg"><path d="M170.602 84.045l-2.836 8.568-17.598-.003c-5.917 0-9.709-5.201-7.766-10.742l6.663-20.133 5.456-16.486c1.31-3.879 4.781-6.451 8.893-6.451h22.163l-2.835 8.565h-18.065c-1.181 0-1.934.547-2.26 1.623l-10.72 32.391c-.588 1.443.331 2.667 1.831 2.667h17.074z" fill="#0082C8"/><path fill-rule="evenodd" clip-rule="evenodd" d="M157.911 80.998h-3.044l10.144-30.65h3.044l-10.144 30.65z" fill="#0082C8"/><path d="M243.758 84.044l-2.836 8.567h-17.587c-5.917 0-9.709-5.202-7.765-10.743l8.391-25.354 3.728-11.265c1.309-3.878 4.781-6.45 8.893-6.45h13.94c5.959 0 9.659 5.134 7.804 10.74l-4.897 14.793c-1.041 3.147-3.172 5.227-6.313 6.142l-20.633 6.013-1.729 5.225c-.33 1.293.559 2.333 1.942 2.333h17.062zm4.872-36.68h-10.786c-1.119 0-1.855.492-2.205 1.46l-5.902 17.831 14.187-4.134c.821-.24 1.312-.752 1.556-1.49l4.072-12.302c.202-.611-.19-1.365-.922-1.365zM192.673 63.425l-6.824 20.62h12.153c1.182 0 1.907-.546 2.261-1.614l5.842-17.641c.052-.771-.023-1.366-.985-1.366h-12.447zm2.835-8.566h11.671c5.012 0 8.49 3.65 8.16 8.566-.047.702-.215 1.425-.462 2.172l-6.551 19.798c-1.4 4.23-5.449 7.215-9.901 7.215h-24.544l17.81-53.812h28.92l-2.835 8.566h-19.787l-2.481 7.495zM267.964 38.798h20.699c5.958 0 9.658 5.135 7.803 10.74l-4.896 14.794c-1.041 3.147-3.172 5.227-6.313 6.142l-20.633 6.013-5.336 16.124h-9.133l17.809-53.813zm-.087 27.857l14.188-4.134c.821-.24 1.312-.752 1.556-1.49l4.071-12.302c.203-.611-.189-1.365-.921-1.365h-12.508l-6.386 19.291zM123.608 92.61l8.426-25.457-17.468 11.033-4.775 14.425h-9.132l17.809-53.813h9.133l-9.22 27.857 17.469-11.032 5.568-16.825h9.132l-17.809 53.813h-9.133z" fill="#0082C8"/><path fill-rule="evenodd" clip-rule="evenodd" d="M127.55 32.147h18.321l-6.01-10.926-13.596 8.59 1.285 2.336zM111.692 13.275L85.436 92.611h9.132l26.257-79.336h-9.133z" fill="#0082C8"/><path d="M54.741 52.697c-3.837-3.725-8.243-7.35-13.273-10.844l1.68-2.778c.06-.092.117-.185.17-.28v-.001c5.01 3.47 9.434 7.069 13.32 10.77l-1.897 3.133zM71.96 57.404a84.776 84.776 0 014.05 5.996 79.842 79.842 0 014.964 9.413l.03.065.272.68-1.804 5.4-2.025-5.056a75.623 75.623 0 00-4.67-8.85 79.427 79.427 0 00-2.843-4.303l2.026-3.345zM46.562 33.428a126.19 126.19 0 017.4 5.498c2.056 1.651 4.058 3.37 5.992 5.161l-1.891 3.124a107.905 107.905 0 00-6.347-5.506c-2.27-1.823-4.61-3.56-7.005-5.216l1.851-3.061z" fill="#0082C8"/><path d="M107.979 15.293L82.39 92.61h-6.138l-.317-1.74c-1.493-8.18-4.551-16.31-9.609-24.163l2.07-3.417c5.614 8.228 9.106 16.763 10.928 25.367l24.282-73.365h4.373zM44.659 83.144c-1.967 3.38-3.522 6.793-6.898 9.099-3.422 2.336-8.16 3.35-12.097 4.079-3.105.575-13.96 1.95-20.199 1.753-3.488-.11-4.648-.064-4.914-3.16-.082-.956-.076-1.937-.075-2.426.02-6.31 8.746-4.197 12.673-4.201 8.304-.009 22.92.562 28.073-7.566L86.966 5.061l3.537 2.258-45.844 75.825z" fill="#0082C8"/><path d="M89.614 14.43c1.967-3.38 3.521-6.793 6.898-9.1 3.421-2.335 8.16-3.35 12.097-4.078 3.105-.575 13.959-1.95 20.198-1.753 3.489.11 4.649.064 4.915 3.16.082.956.076 1.936.074 2.426-.02 6.31-8.745 4.197-12.673 4.2-8.303.01-22.918-.562-28.072 7.566L47.307 92.513l-3.537-2.259L89.614 14.43z" fill="#0082C8"/><path fill-rule="evenodd" clip-rule="evenodd" d="M24.436 25.442l-1.084 2.22c-2.264 4.03 14.618 14.085 17.081 9.702l1.928-3.155c1.123-1.837-1.908-5.703-6.62-8.544-4.71-2.841-9.386-3.622-10.441-1.744-1.055 1.877 1.908 5.702 6.62 8.543 2.916 1.758 5.817 2.727 7.855 2.765-4.067.197-10.906-3.083-13.807-6.958-.74-.963-1.349-1.978-1.532-2.829z" fill="#0082C8"/><path d="M288.3 92.61l10.218-30.874 5.456-16.487c1.31-3.878 4.781-6.45 8.893-6.45h22.162l-2.834 8.565h-18.066c-1.18 0-1.934.547-2.259 1.623L297.432 92.61H288.3z" fill="#0082C8"/><path fill-rule="evenodd" clip-rule="evenodd" d="M303.521 92.61h-3.045l13.987-42.262h3.045l-13.987 42.263z" fill="#0082C8"/></svg><svg fill="none" viewBox="0 0 372 112" id="logo_light" xmlns="http://www.w3.org/2000/svg"><path fill-rule="evenodd" clip-rule="evenodd" d="M348.539 57.695h3.343l-17.211 47.232h-3.343l17.211-47.232z" fill="#fff"/><path d="M185.734 104.93l-19.303-.003c-6.491-.001-10.422-5.813-8.046-12.005l8.197-22.5 6.713-18.425c1.607-4.335 5.529-7.21 10.041-7.21h24.313l-3.487 9.572h-19.819c-1.296 0-2.146.612-2.551 1.814l-13.188 36.2c-.708 1.613.246 2.98 1.892 2.98h18.727l-3.489 9.577zM269.484 95.354l-3.488 9.573h-19.294c-6.491 0-10.422-5.813-8.046-12.006l10.323-28.335 4.587-12.59c1.607-4.334 5.529-7.21 10.04-7.21H278.9c6.537 0 10.37 5.74 8.087 12.005l-6.023 16.533c-1.281 3.516-3.711 5.84-7.197 6.863l-22.901 6.72-2.128 5.84c-.418 1.445.511 2.607 2.028 2.607h18.718zm6.963-40.995h-11.834c-1.228 0-2.056.55-2.483 1.632l-7.261 19.929 15.747-4.62c.911-.268 1.472-.84 1.772-1.665l5.009-13.75c.249-.683-.148-1.526-.95-1.526zM298.035 44.787h22.708c6.537 0 10.37 5.739 8.087 12.004l-6.023 16.533c-1.281 3.516-3.711 5.84-7.197 6.863l-22.901 6.72-6.565 18.02H276.121l21.914-60.14zm-1.323 31.133l15.747-4.62c.911-.268 1.472-.84 1.773-1.665l5.008-13.75c.249-.683-.148-1.526-.95-1.526h-13.723l-7.855 21.561zM336.984 52.743l.272-.747c1.607-4.334 5.529-7.21 10.041-7.21h24.314l-3.488 9.573h-19.819c-1.295 0-2.146.612-2.551 1.814l-17.761 48.754H317.966l19.016-52.184h.002zM147.655 76.478L128.01 88.805l-5.875 16.122h-10.019l21.91-60.14h10.019l-11.34 31.131 19.646-12.327 6.853-18.804h10.019l-21.911 60.14h-10.019l10.362-28.449z" fill="#fff"/><path fill-rule="evenodd" clip-rule="evenodd" d="M144.283 37.354h20.099l-6.112-12.211-15.294 9.6 1.307 2.61z" fill="#fff"/><path d="M62.5 60.355c-4.142-4.16-8.924-8.208-14.406-12.11l1.98-3.103c.07-.102.137-.206.2-.313 5.46 3.875 10.263 7.894 14.462 12.028L62.5 60.355zM81.543 65.611a90.262 90.262 0 014.296 6.696 85.593 85.593 0 015.185 10.511l.03.074.278.76-2.217 6.03-2.07-5.648a81.006 81.006 0 00-4.879-9.882 84.735 84.735 0 00-3.01-4.805l2.387-3.736zM54.098 38.836a134.108 134.108 0 018.052 6.14 119.326 119.326 0 016.495 5.764l-2.23 3.489c-2.203-2.14-4.5-4.188-6.876-6.15a130.362 130.362 0 00-7.623-5.825l2.182-3.418z" fill="#fff"/><path d="M91.858 104.927h-6.852l-.289-1.943c-1.358-9.134-4.464-18.214-9.814-26.983l2.44-3.817c5.956 9.19 9.532 18.721 11.241 28.33l29.855-81.93h4.899l-31.462 86.343h-.018zM50.097 94.356c-2.323 3.774-4.187 7.586-8.043 10.16-3.907 2.61-9.235 3.742-13.657 4.556-3.487.642-15.656 2.178-22.612 1.958-3.89-.124-5.187-.072-5.367-3.529-.055-1.068-.012-2.163.008-2.709.261-7.047 9.921-4.688 14.305-4.692 9.269-.009 25.562.628 31.621-8.448l53.916-84.494 3.863 2.522-54.034 84.676z" fill="#fff"/><path d="M102.871 17.62c2.323-3.774 4.187-7.586 8.043-10.16 3.908-2.61 9.235-3.742 13.657-4.556 3.488-.642 15.656-2.178 22.613-1.958 3.889.124 5.186.072 5.366 3.53.055 1.067.012 2.162-.008 2.708-.261 7.048-9.921 4.688-14.305 4.692-9.268.01-25.562-.628-31.621 8.449L52.7 104.817l-3.863-2.522L102.87 17.62zM188.427 33.866a4.823 4.823 0 01-3.377 1.366c-1.802 0-2.791-1.18-2.497-2.855.357-2.032 2.207-3.723 4.552-3.723 1.258 0 1.953.465 2.39 1.163l1.981-1.38c-.528-1.242-1.633-2.11-3.807-2.11-3.914 0-7.042 2.777-7.649 6.236-.626 3.569 1.794 4.996 4.513 4.996 2.112 0 3.887-.822 5.059-2.188l-1.165-1.505zm9.54 3.507h2.408l4.018-10.86h-9.63l-4.018 10.86h2.407l3.189-8.61h4.815l-3.189 8.61zm6.634-4.623c-.481 2.745 1.098 4.809 4.111 4.809 3.588 0 6.924-2.637 7.592-6.439.495-2.823-1.039-4.793-4.083-4.793-4.24 0-7.135 3.661-7.62 6.422zm2.537-.202c.375-2.141 2.298-3.894 4.411-3.894 1.724 0 2.469 1.24 2.213 2.7-.365 2.078-2.25 3.878-4.378 3.878-1.584 0-2.535-1.04-2.246-2.684zm11.778 4.825l1.267-3.413h2.097c3.029 0 5.658-1.35 6.153-4.174.31-1.769-.311-3.273-3.402-3.273h-4.504l-4.018 10.86h2.407zm5.348-8.61c1.32 0 1.761.496 1.638 1.194-.182 1.04-1.068 1.753-2.823 1.753h-2.066l1.092-2.948h2.159zm5.605 0h3.479l-3.188 8.61h2.407l3.189-8.61h3.494l.83-2.25h-9.381l-.83 2.25zm10.167 8.61l7.652-6.346-2.356 6.346h2.408l4.018-10.86h-2.004l-7.626 6.376 2.361-6.376h-2.407l-4.018 10.86h1.972zm10.715 0h4.737c2.796 0 5.116-.915 5.606-3.708.193-1.102-.133-1.722-.65-2.048.912-.419 1.81-1.288 2.008-2.42.311-1.769-.429-2.684-2.822-2.684h-4.861l-4.018 10.86zm6.264-4.453c1.01 0 1.679.17 1.557.869-.164.93-.965 1.334-2.503 1.334h-2.081l.822-2.203h2.205zm1.538-4.158c1.118 0 1.426.28 1.331.823-.131.744-.795 1.163-1.866 1.163h-2.408l.737-1.986h2.206zm10.958 8.61h2.408l4.018-10.859h-2.407l-1.572 4.266h-4.83l1.571-4.266h-2.407l-4.018 10.86h2.407l1.601-4.344h4.831l-1.602 4.344zm4.348 0h2.671l1.628-2.016h4.473l.143 2.017h2.407l-.75-10.86h-1.786l-8.786 10.86zm8.442-7.213l.205 3.165h-2.749l2.544-3.165zm11.281 7.214h2.408l4.018-10.86h-4.846c-2.843 0-5.287 1.365-5.748 3.987-.25 1.427.327 2.296 1.372 2.808l-4.675 4.065h2.905l4.124-3.584h1.77l-1.328 3.584zm-.218-5.834c-.994 0-1.552-.45-1.397-1.334.18-1.024 1.138-1.442 2.521-1.442h2.283l-1.031 2.776h-2.376zm16.157 5.834h12.721l4.018-10.86h-2.407l-3.189 8.61h-2.749l3.188-8.61h-2.407l-3.188 8.61h-2.75l3.189-8.61h-2.407l-4.019 10.86zm15.733 0h2.407l1.256-3.351 1.455-1.04 2.041 4.39h2.874l-2.701-5.848 6.408-5.01h-3.354l-5.554 4.296 1.593-4.297h-2.407l-4.018 10.86zm11.93-4.623c-.482 2.745 1.097 4.809 4.11 4.809 3.588 0 6.925-2.637 7.592-6.439.495-2.823-1.038-4.793-4.083-4.793-4.24 0-7.134 3.661-7.619 6.422zm2.536-.202c.376-2.141 2.298-3.894 4.411-3.894 1.724 0 2.469 1.24 2.213 2.7-.365 2.078-2.249 3.878-4.377 3.878-1.584 0-2.536-1.04-2.247-2.684zm16.221 4.825h2.407l4.018-10.86h-8.154l-.464 1.225c-2.624 6.904-3.399 7.602-4.979 7.4l-.827 2.235c.196.03.629.046.924.046 2.749 0 4.375-2.187 6.348-7.322l.485-1.257h3.401l-3.159 8.533zm4.347 0h2.672l1.627-2.017h4.473l.143 2.017h2.408l-.75-10.86h-1.787l-8.786 10.86zm8.442-7.214l.205 3.165h-2.749l2.544-3.165z" fill="#fff"/><path fill-rule="evenodd" clip-rule="evenodd" d="M95.436 104.927h10.016l32.283-88.596H127.72l-32.284 88.596zM184.578 57.695h3.343L175.439 91.95h-3.343l12.482-34.255z" fill="#fff"/><path d="M214.35 72.31l-8.396 23.044h13.333c1.296 0 2.116-.61 2.551-1.804l7.187-19.715c.091-.862.034-1.526-1.02-1.526H214.35zm.007-27.523h31.728l-3.487 9.572h-21.709l-3.052 8.378h12.804c5.498 0 9.153 4.078 8.575 9.572-.083.786-.299 1.593-.603 2.428l-8.06 22.126c-1.722 4.729-6.296 8.063-11.18 8.063l-26.931.001 21.915-60.14z" fill="#fff"/><path fill-rule="evenodd" clip-rule="evenodd" d="M28.075 32.192c-.953 1.48 2.44 5.356 7.58 8.658 5.139 3.302 10.078 4.78 11.03 3.3l3.346-5.195c.953-1.48-2.44-5.356-7.58-8.658-4.659-2.994-9.153-4.487-10.662-3.637-.507.285-.612.79-.471 1.371C32.33 32.197 42.9 38.716 47.58 39.45c-4.936-.306-15.883-6.693-16.934-11.25l-2.572 3.993z" fill="#fff"/></svg><svg viewBox="0 0 42 72" id="next-1" xmlns="http://www.w3.org/2000/svg"><rect x="6.012" width="50" height="8" rx="4" transform="rotate(45 6.012 0)" fill-opacity=".75"/><rect x="41.012" y="36.163" width="50" height="8" rx="4" transform="rotate(135 41.012 36.163)" fill-opacity=".75"/></svg><svg viewBox="0 0 18 30" id="next-2" xmlns="http://www.w3.org/2000/svg"><rect x="2.522" width="20.974" height="3.356" rx="1.678" transform="rotate(45 2.522 0)" fill="#C4C4C4"/><rect x="17.203" y="15.169" width="20.974" height="3.356" rx="1.678" transform="rotate(135 17.203 15.17)" fill="#C4C4C4"/></svg><svg fill="none" viewBox="0 0 12 18" id="next-3" xmlns="http://www.w3.org/2000/svg"><path d="M2 2l7 7-7 7" stroke="#fff" stroke-width="4"/></svg><svg viewBox="0 0 28 27" id="phone" xmlns="http://www.w3.org/2000/svg"><mask id="asa" maskUnits="userSpaceOnUse" x=".019" y="1.403" width="28" height="26"><path fill="#fff" d="M.019 1.403h28v26h-28z"/><path d="M22.906 16.884c-.567-.55-1.252-.843-1.977-.843-.72 0-1.41.288-2.001.838l-1.849 1.714c-.152-.076-.304-.147-.45-.217-.211-.098-.41-.19-.58-.289-1.731-1.023-3.305-2.356-4.815-4.081-.73-.86-1.222-1.584-1.58-2.319.48-.408.925-.832 1.358-1.24l.492-.463c1.228-1.143 1.228-2.623 0-3.766L9.906 4.732c-.181-.168-.368-.342-.544-.516-.35-.338-.72-.686-1.1-1.013-.567-.522-1.246-.8-1.96-.8-.713 0-1.404.278-1.989.8l-.011.011-1.99 1.867c-.748.696-1.175 1.545-1.269 2.53-.14 1.59.363 3.07.749 4.038.948 2.379 2.363 4.583 4.475 6.944a27.34 27.34 0 009.168 6.678c1.346.593 3.142 1.295 5.148 1.415.123.005.252.01.369.01 1.351 0 2.486-.451 3.376-1.35.006-.01.017-.015.023-.026.304-.343.655-.653 1.024-.985.252-.224.509-.457.76-.702.58-.56.884-1.214.884-1.883 0-.675-.31-1.323-.901-1.867l-3.212-2.998zm2.095 5.73c-.006 0-.006.006 0 0-.229.23-.463.436-.714.665-.38.337-.767.691-1.13 1.088-.59.588-1.287.866-2.2.866-.087 0-.18 0-.268-.006-1.738-.103-3.352-.735-4.564-1.273a25.81 25.81 0 01-8.635-6.291c-1.995-2.237-3.329-4.305-4.212-6.525-.544-1.355-.743-2.411-.655-3.407.058-.637.321-1.165.807-1.616l1.995-1.856c.287-.25.59-.386.89-.386.368 0 .666.206.853.38l.018.017c.357.31.696.631 1.053.974.181.174.369.348.556.528l1.597 1.486c.62.576.62 1.11 0 1.687-.17.157-.333.315-.503.468-.492.468-.96.903-1.469 1.328-.011.01-.023.016-.029.027-.503.468-.41.925-.304 1.235l.017.049c.416.936 1 1.818 1.89 2.868l.006.005c1.615 1.85 3.317 3.293 5.195 4.398.24.141.486.255.72.364.21.098.41.19.579.289.023.01.047.027.07.038.2.092.386.136.58.136.485 0 .79-.283.889-.376l2-1.861c.2-.185.515-.408.884-.408.363 0 .661.212.842.397l.012.011 3.224 2.999c.602.555.602 1.126.005 1.703z"/></mask><path d="M22.906 16.884c-.567-.55-1.252-.843-1.977-.843-.72 0-1.41.288-2.001.838l-1.849 1.714c-.152-.076-.304-.147-.45-.217-.211-.098-.41-.19-.58-.289-1.731-1.023-3.305-2.356-4.815-4.081-.73-.86-1.222-1.584-1.58-2.319.48-.408.925-.832 1.358-1.24l.492-.463c1.228-1.143 1.228-2.623 0-3.766L9.906 4.732c-.181-.168-.368-.342-.544-.516-.35-.338-.72-.686-1.1-1.013-.567-.522-1.246-.8-1.96-.8-.713 0-1.404.278-1.989.8l-.011.011-1.99 1.867c-.748.696-1.175 1.545-1.269 2.53-.14 1.59.363 3.07.749 4.038.948 2.379 2.363 4.583 4.475 6.944a27.34 27.34 0 009.168 6.678c1.346.593 3.142 1.295 5.148 1.415.123.005.252.01.369.01 1.351 0 2.486-.451 3.376-1.35.006-.01.017-.015.023-.026.304-.343.655-.653 1.024-.985.252-.224.509-.457.76-.702.58-.56.884-1.214.884-1.883 0-.675-.31-1.323-.901-1.867l-3.212-2.998zm2.095 5.73c-.006 0-.006.006 0 0-.229.23-.463.436-.714.665-.38.337-.767.691-1.13 1.088-.59.588-1.287.866-2.2.866-.087 0-.18 0-.268-.006-1.738-.103-3.352-.735-4.564-1.273a25.81 25.81 0 01-8.635-6.291c-1.995-2.237-3.329-4.305-4.212-6.525-.544-1.355-.743-2.411-.655-3.407.058-.637.321-1.165.807-1.616l1.995-1.856c.287-.25.59-.386.89-.386.368 0 .666.206.853.38l.018.017c.357.31.696.631 1.053.974.181.174.369.348.556.528l1.597 1.486c.62.576.62 1.11 0 1.687-.17.157-.333.315-.503.468-.492.468-.96.903-1.469 1.328-.011.01-.023.016-.029.027-.503.468-.41.925-.304 1.235l.017.049c.416.936 1 1.818 1.89 2.868l.006.005c1.615 1.85 3.317 3.293 5.195 4.398.24.141.486.255.72.364.21.098.41.19.579.289.023.01.047.027.07.038.2.092.386.136.58.136.485 0 .79-.283.889-.376l2-1.861c.2-.185.515-.408.884-.408.363 0 .661.212.842.397l.012.011 3.224 2.999c.602.555.602 1.126.005 1.703z"/><path d="M22.906 16.884c-.567-.55-1.252-.843-1.977-.843-.72 0-1.41.288-2.001.838l-1.849 1.714c-.152-.076-.304-.147-.45-.217-.211-.098-.41-.19-.58-.289-1.731-1.023-3.305-2.356-4.815-4.081-.73-.86-1.222-1.584-1.58-2.319.48-.408.925-.832 1.358-1.24l.492-.463c1.228-1.143 1.228-2.623 0-3.766L9.906 4.732c-.181-.168-.368-.342-.544-.516-.35-.338-.72-.686-1.1-1.013-.567-.522-1.246-.8-1.96-.8-.713 0-1.404.278-1.989.8l-.011.011-1.99 1.867c-.748.696-1.175 1.545-1.269 2.53-.14 1.59.363 3.07.749 4.038.948 2.379 2.363 4.583 4.475 6.944a27.34 27.34 0 009.168 6.678c1.346.593 3.142 1.295 5.148 1.415.123.005.252.01.369.01 1.351 0 2.486-.451 3.376-1.35.006-.01.017-.015.023-.026.304-.343.655-.653 1.024-.985.252-.224.509-.457.76-.702.58-.56.884-1.214.884-1.883 0-.675-.31-1.323-.901-1.867l-3.212-2.998zm2.095 5.73c-.006 0-.006.006 0 0-.229.23-.463.436-.714.665-.38.337-.767.691-1.13 1.088-.59.588-1.287.866-2.2.866-.087 0-.18 0-.268-.006-1.738-.103-3.352-.735-4.564-1.273a25.81 25.81 0 01-8.635-6.291c-1.995-2.237-3.329-4.305-4.212-6.525-.544-1.355-.743-2.411-.655-3.407.058-.637.321-1.165.807-1.616l1.995-1.856c.287-.25.59-.386.89-.386.368 0 .666.206.853.38l.018.017c.357.31.696.631 1.053.974.181.174.369.348.556.528l1.597 1.486c.62.576.62 1.11 0 1.687-.17.157-.333.315-.503.468-.492.468-.96.903-1.469 1.328-.011.01-.023.016-.029.027-.503.468-.41.925-.304 1.235l.017.049c.416.936 1 1.818 1.89 2.868l.006.005c1.615 1.85 3.317 3.293 5.195 4.398.24.141.486.255.72.364.21.098.41.19.579.289.023.01.047.027.07.038.2.092.386.136.58.136.485 0 .79-.283.889-.376l2-1.861c.2-.185.515-.408.884-.408.363 0 .661.212.842.397l.012.011 3.224 2.999c.602.555.602 1.126.005 1.703z" stroke="#0082C8" stroke-width=".4" mask="url(#asa)"/><mask id="asb" maskUnits="userSpaceOnUse" x="13.441" y="5.048" width="10" height="11"><path fill="#fff" d="M13.441 5.048h10v11h-10z"/><path d="M15.051 7.716c1.438.275 2.744 1.047 3.786 2.23 1.043 1.184 1.718 2.666 1.965 4.298.06.412.373.698.73.698.044 0 .082-.006.126-.012.406-.075.675-.511.61-.972-.297-1.975-1.12-3.775-2.377-5.201-1.257-1.427-2.842-2.361-4.582-2.697-.406-.075-.785.23-.856.685-.071.454.192.897.598.971z"/></mask><path d="M15.051 7.716c1.438.275 2.744 1.047 3.786 2.23 1.043 1.184 1.718 2.666 1.965 4.298.06.412.373.698.73.698.044 0 .082-.006.126-.012.406-.075.675-.511.61-.972-.297-1.975-1.12-3.775-2.377-5.201-1.257-1.427-2.842-2.361-4.582-2.697-.406-.075-.785.23-.856.685-.071.454.192.897.598.971z"/><path d="M15.051 7.716c1.438.275 2.744 1.047 3.786 2.23 1.043 1.184 1.718 2.666 1.965 4.298.06.412.373.698.73.698.044 0 .082-.006.126-.012.406-.075.675-.511.61-.972-.297-1.975-1.12-3.775-2.377-5.201-1.257-1.427-2.842-2.361-4.582-2.697-.406-.075-.785.23-.856.685-.071.454.192.897.598.971z" stroke="#0082C8" stroke-width=".4" mask="url(#asb)"/><mask id="asc" maskUnits="userSpaceOnUse" x="13.652" y="-.304" width="14" height="16"><path fill="#fff" d="M13.652-.304h14v16h-14z"/><path d="M26.97 13.715c-.488-3.251-1.838-6.21-3.913-8.565-2.074-2.354-4.68-3.886-7.545-4.44-.4-.082-.78.23-.85.684-.066.461.202.891.608.972 2.558.492 4.89 1.869 6.745 3.968 1.854 2.105 3.062 4.753 3.495 7.655.06.411.373.698.73.698.044 0 .082-.006.126-.013.4-.068.675-.504.604-.959z"/></mask><path d="M26.97 13.715c-.488-3.251-1.838-6.21-3.913-8.565-2.074-2.354-4.68-3.886-7.545-4.44-.4-.082-.78.23-.85.684-.066.461.202.891.608.972 2.558.492 4.89 1.869 6.745 3.968 1.854 2.105 3.062 4.753 3.495 7.655.06.411.373.698.73.698.044 0 .082-.006.126-.013.4-.068.675-.504.604-.959z"/><path d="M26.97 13.715c-.488-3.251-1.838-6.21-3.913-8.565-2.074-2.354-4.68-3.886-7.545-4.44-.4-.082-.78.23-.85.684-.066.461.202.891.608.972 2.558.492 4.89 1.869 6.745 3.968 1.854 2.105 3.062 4.753 3.495 7.655.06.411.373.698.73.698.044 0 .082-.006.126-.013.4-.068.675-.504.604-.959z" stroke="#0082C8" stroke-width=".4" mask="url(#asc)"/></svg><svg fill="none" viewBox="0 0 53 53" id="play" xmlns="http://www.w3.org/2000/svg"><g filter="url(#atfilter0_d)"><path d="M26.5 0C14.074 0 4 10.074 4 22.5S14.074 45 26.5 45 49 34.926 49 22.5C48.987 10.08 38.92.013 26.5 0zm9.476 23.217a1.608 1.608 0 01-.722.721v.008l-12.857 6.429a1.607 1.607 0 01-2.326-1.446V16.07a1.607 1.607 0 012.326-1.438l12.857 6.429a1.607 1.607 0 01.722 2.155z" fill="#0082C8"/></g><defs><filter id="atfilter0_d" x="0" y="0" width="53" height="53" filterUnits="userSpaceOnUse" color-interpolation-filters="sRGB"><feFlood flood-opacity="0" result="BackgroundImageFix"/><feColorMatrix in="SourceAlpha" values="0 0 0 0 0 0 0 0 0 0 0 0 0 0 0 0 0 0 127 0"/><feOffset dy="4"/><feGaussianBlur stdDeviation="2"/><feColorMatrix values="0 0 0 0 0 0 0 0 0 0 0 0 0 0 0 0 0 0 0.25 0"/><feBlend in2="BackgroundImageFix" result="effect1_dropShadow"/><feBlend in="SourceGraphic" in2="effect1_dropShadow" result="shape"/></filter></defs></svg><svg viewBox="0 0 42 72" id="prev-1" xmlns="http://www.w3.org/2000/svg"><rect width="50.038" height="8.006" rx="4.003" transform="matrix(-.7059 .7083 .7059 .7083 35.355 .091)" fill-opacity=".75"/><rect width="50.029" height="8.005" rx="4.002" transform="matrix(.7067 .7075 .7067 -.7075 .355 36.296)" fill-opacity=".75"/></svg><svg viewBox="0 0 18 30" id="prev-2" xmlns="http://www.w3.org/2000/svg"><rect width="20.974" height="3.356" rx="1.678" transform="scale(-1 1) rotate(45 -7.415 -17.902)"/><rect width="20.974" height="3.356" rx="1.678" transform="scale(1 -1) rotate(-45 -18.237 -7.765)"/></svg><svg fill="none" viewBox="0 0 12 18" id="prev-3" xmlns="http://www.w3.org/2000/svg"><path d="M10 2L3 9l7 7" stroke="#818181" stroke-width="4"/></svg><svg fill="none" viewBox="0 0 19 19" id="search" xmlns="http://www.w3.org/2000/svg"><path d="M5.246 4.324a.702.702 0 00-.993 0 4.797 4.797 0 00-1.372 3.889.702.702 0 101.397-.14 3.399 3.399 0 01.968-2.756.702.702 0 000-.993z" fill="#0082C8"/><path d="M8.026 0C3.6 0 0 3.6 0 8.026c0 4.425 3.6 8.026 8.026 8.026 4.425 0 8.026-3.6 8.026-8.026S12.452 0 8.026 0zm0 14.648a6.63 6.63 0 01-6.622-6.622 6.63 6.63 0 016.622-6.622 6.63 6.63 0 016.622 6.622 6.63 6.63 0 01-6.622 6.622z" fill="#0082C8"/><path d="M18.794 17.802l-5.1-5.101a.702.702 0 10-.993.992l5.1 5.101a.7.7 0 00.993 0 .702.702 0 000-.992z" fill="#0082C8"/></svg><svg fill="none" viewBox="0 0 480 71" id="sport-school" xmlns="http://www.w3.org/2000/svg"><path fill-rule="evenodd" clip-rule="evenodd" d="M109.411.956H.001v4.696h109.41V.956zM109.411 65.757H.001v4.696h109.41v-4.696z" fill="#0082C8"/><path d="M73.793 39.79a10.208 10.208 0 01-7.17 2.9c-3.84 0-5.968-2.504-5.371-6.063.723-4.317 4.635-7.909 9.632-7.909 2.68 0 4.17.99 5.112 2.472l4.198-2.933c-1.147-2.636-3.518-4.481-8.15-4.481-8.34 0-14.955 5.898-16.187 13.246-1.27 7.58 3.914 10.611 9.706 10.611 4.5 0 8.268-1.746 10.74-4.646l-2.51-3.196zm18.278 7.447h5.13l8.366-23.066H85.049l-8.367 23.066h5.13l6.64-18.288H98.71l-6.639 18.288zm11.938-9.82c-.978 5.833 2.425 10.216 8.844 10.216 7.645 0 14.707-5.602 16.06-13.675 1.005-5.997-2.298-10.182-8.784-10.182-9.035 0-15.137 7.776-16.12 13.642zm5.4-.427c.762-4.548 4.828-8.272 9.329-8.272 3.673 0 5.283 2.637 4.764 5.734-.74 4.416-4.724 8.238-9.257 8.238-3.376 0-5.422-2.207-4.836-5.7zm23.07 10.247l2.638-7.249h4.467c6.454 0 12.03-2.866 13.036-8.864.629-3.757-.721-6.953-7.307-6.953h-9.597l-8.367 23.066h5.13zm11.239-18.288c2.813 0 3.761 1.054 3.513 2.537-.37 2.208-2.246 3.724-5.986 3.724h-4.401l2.274-6.26h4.6zm9.829 0h7.413l-6.64 18.288h5.13l6.639-18.288h7.446l1.728-4.778h-19.989l-1.727 4.779zm19.703 18.288l16.191-13.477-4.906 13.477h5.13l8.367-23.066h-4.27l-16.136 13.543 4.918-13.543h-5.13l-8.367 23.066h4.203zm20.717 0h10.094c5.956 0 10.883-1.943 11.877-7.875.391-2.34-.314-3.657-1.423-4.35 1.936-.89 3.834-2.735 4.237-5.14.63-3.756-.963-5.7-6.06-5.7h-10.358l-8.367 23.065zm13.267-9.457c2.151 0 3.579.363 3.331 1.846-.331 1.977-2.03 2.833-5.307 2.833h-4.434l1.711-4.679h4.699zm3.201-8.83c2.383 0 3.044.592 2.851 1.746-.265 1.581-1.672 2.47-3.955 2.47h-5.129l1.534-4.216h4.699zm21.391 18.287h5.13l8.367-23.066h-5.13l-3.273 9.062h-10.292l3.273-9.062h-5.13l-8.366 23.066h5.129l3.334-9.226h10.292l-3.334 9.226zm7.148 0h5.692l3.432-4.283h9.531l.341 4.283h5.13l-1.793-23.066h-3.806l-18.527 23.066zm17.858-15.322l.495 6.722h-5.858l5.363-6.722zm22.053 15.322h5.13l8.367-23.066h-10.325c-6.057 0-11.242 2.9-12.175 8.469-.509 3.032.738 4.877 2.971 5.965l-9.886 8.632h6.189l8.722-7.611h3.773l-2.766 7.611zm-.571-12.39c-2.118 0-3.314-.955-2.999-2.833.364-2.175 2.4-3.065 5.345-3.065h4.865l-2.147 5.899h-5.064zm21.56 12.39h27.103l8.367-23.066h-5.13l-6.639 18.288h-5.858l6.64-18.288h-5.129l-6.64 18.288h-5.858l6.64-18.288h-5.13l-8.366 23.066zm31.405 0h5.129l2.616-7.117 3.084-2.208 4.428 9.325h6.122l-5.861-12.423 13.566-10.643h-7.148L341.458 33.3l3.318-9.128h-5.13l-8.367 23.066zm24.216-9.82c-.978 5.833 2.424 10.216 8.845 10.216 7.644 0 14.705-5.602 16.059-13.675 1.005-5.997-2.298-10.182-8.784-10.182-9.035 0-15.137 7.776-16.12 13.642zm5.4-.427c.762-4.548 4.828-8.272 9.328-8.272 3.674 0 5.284 2.637 4.765 5.734-.74 4.416-4.724 8.238-9.257 8.238-3.376 0-5.422-2.207-4.836-5.7zm31.542 10.247h5.129l8.367-23.066h-17.374l-.966 2.603c-5.47 14.664-7.108 16.147-10.478 15.719l-1.722 4.744c.42.066 1.341.1 1.969.1 5.858 0 9.284-4.647 13.395-15.554l1.011-2.67h7.247l-6.578 18.124zm7.148 0h5.692l3.432-4.283h9.53l.342 4.283h5.129l-1.793-23.066h-3.806l-18.526 23.066zm17.857-15.322l.495 6.722h-5.857l5.362-6.722z" fill="#0082C8"/><path fill-rule="evenodd" clip-rule="evenodd" d="M218.821.956h-109.41v4.696h109.41V.956zM218.821 65.757h-109.41v4.696h109.41v-4.696zM328.23.956H218.821v4.696H328.23V.956zM328.23 65.757H218.821v4.696H328.23v-4.696zM437.64.956H328.23v4.696h109.41V.956zM437.64 65.757H328.23v4.696h109.41v-4.696zM479.14.956h-41.5v4.696h41.5V.956zM456.503 65.757H437.64v4.696h18.863v-4.696z" fill="#0082C8"/></svg><svg fill="none" viewBox="0 0 68 70" id="trainer" xmlns="http://www.w3.org/2000/svg"><path d="M61.455 50.733c-6.077-8.298-13.651-10.22-17.649-11.483v-2.935a14.672 14.672 0 004.364-10.45V10.258C48.17 4.602 43.57 0 37.912 0h-8.878c-5.656 0-10.258 4.602-10.258 10.258v15.607c0 4.018 1.62 7.665 4.238 10.323v3.145c-3.728 1.177-11.31 3.105-17.385 11.4A28.95 28.95 0 000 67.949 2.05 2.05 0 002.05 70h62.983a2.05 2.05 0 002.05-2.05 28.951 28.951 0 00-5.628-17.217zm-21.75-10.58L33.8 49.395a4.636 4.636 0 00-.696.004l-5.988-9.174v-1.099a14.663 14.663 0 0012.589.06v.967zM24.29 20.806l-1.413-4.53v-.746h21.191v.723c-.044.132.27-.832-1.477 4.553-9.874-1.454-8.284-1.475-18.301 0zm-1.413-10.548a6.164 6.164 0 016.156-6.156h8.878a6.164 6.164 0 016.157 6.156v1.17H22.878v-1.17zm0 14.493c.426.152.855.217 1.146.217.214 0-.258.06 6.51-.936 3.585-.527 5.536-.04 12.024.915.476.07 1.064-.05 1.511-.219v1.136c0 5.85-4.753 10.61-10.596 10.61-5.817 0-10.595-4.737-10.595-10.61v-1.113zm1.32 18.509l5.265 8.064c-2.959 3.716.335 9.176 5.036 8.217v1.93a2.05 2.05 0 004.101 0v-6.957c0-1.22-.429-2.343-1.143-3.225l5.18-8.107c3.005.948 4.595 1.37 6.946 2.596v20.12H17.5v-20.12c2.35-1.225 3.98-1.66 6.698-2.518zm-10.8 5.197v17.441H4.184a24.904 24.904 0 019.214-17.441zm40.287 17.441V48.457a24.904 24.904 0 019.214 17.441h-9.214z" fill="#80CFF1"/></svg><svg fill="none" viewBox="0 0 70 70" id="trophy" xmlns="http://www.w3.org/2000/svg"><path d="M67.95 5.052h-8.984c.033-.995.051-1.996.051-3.001C59.017.918 58.098 0 56.967 0H13.033c-1.133 0-2.051.918-2.051 2.05 0 1.006.018 2.007.05 3.002H2.052A2.05 2.05 0 000 7.103c0 9.189 2.402 17.858 6.762 24.412 4.31 6.478 10.052 10.194 16.255 10.556 1.406 1.53 2.892 2.778 4.44 3.73v9.114h-3.44c-4.16 0-7.542 3.384-7.542 7.543v3.44h-.146a2.051 2.051 0 000 4.102H53.67a2.05 2.05 0 100-4.102h-.146v-3.44c0-4.16-3.383-7.543-7.542-7.543h-3.44V45.8c1.548-.95 3.035-2.199 4.44-3.73 6.203-.36 11.944-4.077 16.255-10.555C67.598 24.96 70 16.292 70 7.103a2.05 2.05 0 00-2.05-2.05zm-57.773 24.19C6.58 23.839 4.467 16.769 4.145 9.155h7.118c.74 9.36 2.937 18.011 6.37 24.879a42.23 42.23 0 001.713 3.1c-3.411-1.288-6.568-3.98-9.169-7.89zm39.247 33.216v3.44H20.576v-3.44a3.445 3.445 0 013.441-3.441h21.966a3.445 3.445 0 013.44 3.44zM38.44 54.915h-6.882v-7.333c1.128.297 2.276.452 3.441.452s2.313-.155 3.44-.452v7.333zm1.27-12.212a2.014 2.014 0 00-.266.135c-1.45.72-2.939 1.094-4.445 1.094-1.505 0-2.995-.373-4.443-1.093a2.041 2.041 0 00-.269-.137c-1.608-.85-3.164-2.134-4.635-3.821a2.068 2.068 0 00-.261-.306c-1.46-1.734-2.835-3.867-4.09-6.377-3.769-7.537-5.946-17.447-6.194-28.096h39.784c-.249 10.649-2.426 20.56-6.194 28.096-1.255 2.51-2.63 4.643-4.09 6.377a2.02 2.02 0 00-.261.306c-1.472 1.688-3.028 2.971-4.636 3.822zm20.112-13.46c-2.6 3.91-5.758 6.602-9.169 7.89a42.23 42.23 0 001.712-3.1c3.434-6.868 5.631-15.52 6.371-24.88h7.118c-.322 7.615-2.435 14.685-6.032 20.09z" fill="#80CFF1"/></svg><svg viewBox="0 0 31 31" id="vk" xmlns="http://www.w3.org/2000/svg"><g clip-path="url(#bbclip0)"><path d="M15.687 25.188c4.485 0 2.886-2.84 3.232-3.656-.005-.61-.01-1.196.01-1.552.285.08.955.42 2.34 1.765 2.137 2.157 2.684 3.442 4.41 3.442h3.18c1.007 0 1.531-.417 1.793-.767.254-.338.502-.932.23-1.857-.709-2.227-4.845-6.072-5.102-6.478.04-.075.101-.174.133-.226h-.002c.816-1.079 3.932-5.746 4.39-7.614a.024.024 0 00.003-.01c.248-.853.02-1.406-.215-1.719-.354-.467-.917-.704-1.677-.704h-3.18c-1.064 0-1.87.537-2.28 1.514-.682 1.738-2.602 5.31-4.04 6.575a82.903 82.903 0 01.008-4.176c.047-1.983.197-3.912-1.861-3.912h-4.996c-1.29 0-2.523 1.407-1.187 3.079 1.168 1.465.42 2.28.671 6.345-.981-1.053-2.728-3.896-3.962-7.53-.346-.983-.87-1.893-2.347-1.893h-3.18C.77 5.814 0 6.516 0 7.694c0 2.642 5.85 17.493 15.687 17.493zM5.237 7.75c.281 0 .31 0 .517.59 1.265 3.725 4.101 9.235 6.173 9.235 1.557 0 1.557-1.596 1.557-2.196l-.002-4.782c-.085-1.582-.66-2.37-1.04-2.848l4.532.005c.002.022-.026 5.29.013 6.566 0 1.812 1.439 2.85 3.685.577 2.37-2.675 4.01-6.674 4.075-6.837.097-.232.18-.311.486-.311h3.191c0 .004 0 .008-.002.012-.29 1.356-3.16 5.678-4.12 7.02-.015.02-.029.043-.043.064-.423.69-.766 1.452.058 2.524h.001c.075.09.27.303.554.597.884.912 3.914 4.03 4.183 5.27-.178.029-.372.008-3.375.014-.64 0-1.14-.956-3.047-2.88-1.716-1.669-2.83-2.351-3.843-2.351-1.969 0-1.825 1.598-1.807 3.53.006 2.095-.007 1.433.008 1.564-.115.046-.445.136-1.304.136-8.195 0-13.532-13.008-13.738-15.495.071-.006 1.049-.002 3.289-.004z"/></g><defs><clipPath id="bbclip0"><path fill="#fff" d="M0 0h31v31H0z"/></clipPath></defs></svg><svg viewBox="0 0 30 16" id="watch" xmlns="http://www.w3.org/2000/svg"><path d="M29.776 7.414C29.508 7.115 23.066.09 14.999.09S.492 7.115.224 7.414a.879.879 0 000 1.172c.267.299 6.708 7.324 14.775 7.324 8.068 0 14.509-7.025 14.777-7.324a.879.879 0 000-1.172zm-14.777 6.738A6.16 6.16 0 018.848 8 6.16 6.16 0 0115 1.848 6.16 6.16 0 0121.152 8a6.16 6.16 0 01-6.153 6.152z"/><path d="M15.879 6.242c0-.884.439-1.662 1.107-2.14A4.338 4.338 0 0015 3.605 4.4 4.4 0 0010.605 8 4.4 4.4 0 0015 12.395c2.17 0 3.965-1.585 4.32-3.654-1.77.57-3.441-.769-3.441-2.499z"/></svg></svg>